<svg width="17" height="17" viewBox="0 0 17 17" fill="none" xmlns="http://www.w3.org/2000/svg">
<path d="M12.4456 2.9873C11.9194 2.9873 11.4937 3.4245 11.4937 3.96493C11.4937 4.50536 11.9194 4.94256 12.4456 4.94256C12.9718 4.94256 13.3975 4.50536 13.3975 3.96493C13.3975 3.4245 12.9718 2.9873 12.4456 2.9873Z" fill="black"/>
<path d="M8.20643 4.24463C5.99519 4.24463 4.19781 6.09059 4.19781 8.3616C4.19781 10.6326 5.99519 12.4786 8.20643 12.4786C10.4177 12.4786 12.215 10.6326 12.215 8.3616C12.215 6.09059 10.4177 4.24463 8.20643 4.24463ZM8.20643 10.9969C6.79336 10.9969 5.64044 9.81286 5.64044 8.3616C5.64044 6.91034 6.79336 5.72625 8.20643 5.72625C9.6195 5.72625 10.7724 6.91034 10.7724 8.3616C10.7724 9.81286 9.6195 10.9969 8.20643 10.9969Z" fill="black"/>
<path d="M11.3873 16.7168H4.88956C2.1935 16.7168 0 14.464 0 11.6951V5.02173C0 2.2528 2.1935 0 4.88956 0H11.3873C14.0834 0 16.2769 2.2528 16.2769 5.02173V11.6951C16.2769 14.464 14.0834 16.7168 11.3873 16.7168ZM4.88956 1.57878C3.03898 1.57878 1.53131 3.1272 1.53131 5.0278V11.7012C1.53131 13.6018 3.03898 15.1502 4.88956 15.1502H11.3873C13.2379 15.1502 14.7456 13.6018 14.7456 11.7012V5.0278C14.7456 3.1272 13.2379 1.57878 11.3873 1.57878H4.88956Z" fill="black"/>
</svg>
