<svg width="17" height="17" viewBox="0 0 17 17" fill="none" xmlns="http://www.w3.org/2000/svg">
<path d="M0.266066 5.50144H3.62431V16.5711H0.266066V5.50144ZM1.94519 0C3.02125 0 3.89037 0.892618 3.89037 1.99169C3.89037 3.09076 3.02125 3.98945 1.94519 3.98945C0.86913 3.98945 0 3.09684 0 1.99169C0 0.886545 0.86913 0 1.94519 0Z" fill="black"/>
<path d="M5.72314 5.50149H8.9395V7.01347H8.98088C9.43022 6.14515 10.524 5.22217 12.1559 5.22217C15.5496 5.22217 16.1763 7.5114 16.1763 10.4989V16.5712H12.8299V11.1851C12.8299 9.89778 12.8062 8.24614 11.0857 8.24614C9.36519 8.24614 9.07548 9.64275 9.07548 11.0879V16.5651H5.72905V5.50149H5.72314Z" fill="black"/>
</svg>
