<svg width="16" height="19" viewBox="0 0 16 19" fill="none" xmlns="http://www.w3.org/2000/svg">
<path d="M15.8275 7.68765C15.6738 7.6998 15.526 7.71194 15.3723 7.71194C13.705 7.71194 12.15 6.84969 11.2395 5.41664V13.2255C11.2395 16.4134 8.72081 19.0002 5.61679 19.0002C2.51277 19.0002 0 16.4134 0 13.2255C0 10.0376 2.51869 7.45084 5.6227 7.45084C5.74095 7.45084 5.85329 7.46298 5.97154 7.46905V10.3109C5.8592 10.2987 5.74095 10.2744 5.6227 10.2744C4.03818 10.2744 2.75518 11.5921 2.75518 13.2195C2.75518 14.8468 4.03818 16.1645 5.6227 16.1645C7.20723 16.1645 8.60847 14.8832 8.60847 13.2559L8.63803 -0.00585938H11.2868C11.5351 2.43518 13.4507 4.34186 15.8334 4.51795V7.68158" fill="black"/>
</svg>
